<?xml version="1.0" standalone="no"?>
<!DOCTYPE svg PUBLIC "-//W3C//DTD SVG 20010904//EN"
 "http://www.w3.org/TR/2001/REC-SVG-20010904/DTD/svg10.dtd">
<svg version="1.0" xmlns="http://www.w3.org/2000/svg"
 width="368.000000pt" height="132.000000pt" viewBox="0 0 368.000000 132.000000"
 preserveAspectRatio="xMidYMid meet">

<g transform="translate(0.000000,132.000000) scale(0.100000,-0.100000)"
fill="#000000" stroke="none">
<path d="M450 759 l0 -284 127 5 c138 6 162 13 228 72 20 17 46 50 58 72 l22
41 3 -95 3 -95 128 5 c120 5 130 7 176 35 162 100 184 323 45 448 -64 58 -99
70 -232 75 l-117 4 -3 -98 -3 -99 -18 37 c-23 46 -96 114 -145 135 -24 11 -79
18 -154 21 l-118 4 0 -283z m230 138 c104 -69 96 -239 -13 -290 -19 -10 -47
-17 -61 -17 l-26 0 0 165 0 165 34 0 c18 0 48 -10 66 -23z m438 3 c48 -29 72
-75 72 -138 0 -98 -50 -160 -136 -170 l-44 -5 0 167 0 166 38 0 c20 0 52 -9
70 -20z"/>
<path d="M1382 763 c-62 -153 -112 -280 -112 -283 0 -3 30 -4 67 -4 l66 2 22
53 21 54 106 3 106 3 18 -48 c9 -26 20 -52 24 -56 4 -4 38 -10 76 -12 38 -2
74 -4 79 -5 35 -8 87 3 119 25 l36 25 -5 -23 c-6 -21 -4 -22 62 -21 l67 2 19
56 19 56 108 0 107 0 19 -52 19 -53 68 -5 c37 -3 67 -2 67 2 0 8 -188 481
-211 531 -11 25 -17 27 -70 27 l-57 0 -50 -122 c-28 -68 -68 -166 -89 -218
l-38 -95 -3 218 -2 218 -63 -3 -62 -3 -3 -204 c-3 -225 -7 -241 -62 -241 -51
0 -69 29 -154 241 l-82 204 -60 3 -59 3 -113 -278z m227 -50 c1 -9 -17 -13
-59 -13 -33 0 -60 1 -60 3 0 2 11 30 24 63 12 32 26 68 30 79 6 16 13 6 36
-50 16 -38 29 -76 29 -82z m701 75 c13 -35 25 -69 27 -75 4 -10 -11 -13 -57
-13 -46 0 -61 3 -57 13 2 6 14 40 27 75 12 34 26 62 30 62 4 0 18 -28 30 -62z"/>
<path d="M2762 759 l3 -282 60 0 60 0 3 227 2 227 58 -3 57 -3 5 -225 5 -225
55 0 55 0 5 225 5 225 68 3 67 3 0 54 0 55 -255 0 -255 0 2 -281z"/>
<path d="M2524 721 c-2 -2 -4 -26 -4 -53 l0 -48 110 0 110 0 0 53 0 52 -106 0
c-58 0 -108 -2 -110 -4z"/>
<path d="M1090 380 c0 -17 6 -20 43 -18 l42 1 -37 4 c-21 2 -38 8 -38 13 0 5
17 11 38 13 l37 4 -42 1 c-37 2 -43 -1 -43 -18z"/>
<path d="M1953 340 c0 -36 2 -52 4 -35 3 16 10 33 16 37 9 6 9 8 0 8 -6 0 -14
12 -16 28 -2 15 -4 -2 -4 -38z"/>
<path d="M2090 389 c0 -6 9 -9 20 -6 28 7 25 -8 -7 -32 -16 -11 -23 -21 -17
-21 7 0 22 11 35 24 13 13 29 22 36 19 18 -7 16 -21 -4 -26 -14 -4 -12 -5 5
-6 18 -1 22 4 22 32 0 24 -3 28 -10 17 -7 -12 -12 -12 -22 -2 -15 15 -58 16
-58 1z"/>
<path d="M2363 380 c39 -21 66 -28 32 -8 -19 11 -19 11 0 19 14 5 7 8 -25 8
l-45 1 38 -20z"/>
<path d="M860 365 c0 -18 5 -25 20 -25 11 0 20 -7 20 -15 0 -9 -9 -15 -25 -15
-14 0 -25 -4 -25 -9 0 -5 25 -10 55 -10 30 0 55 5 55 10 0 5 -11 9 -25 9 -16
0 -25 6 -25 15 0 8 9 15 20 15 15 0 20 7 20 25 0 23 -4 25 -45 25 -41 0 -45
-2 -45 -25z m80 0 c0 -10 -11 -15 -35 -15 -24 0 -35 5 -35 15 0 10 11 15 35
15 24 0 35 -5 35 -15z"/>
<path d="M1433 340 c0 -30 2 -43 4 -27 2 15 2 39 0 55 -2 15 -4 2 -4 -28z"/>
<path d="M1550 380 c0 -5 6 -10 14 -10 10 0 16 -14 19 -42 l4 -43 1 43 c1 30
6 42 17 42 8 0 15 5 15 10 0 6 -16 10 -35 10 -19 0 -35 -4 -35 -10z"/>
<path d="M1873 383 c22 -6 22 -31 0 -55 -10 -11 -12 -18 -4 -18 6 0 14 7 18
15 5 14 8 14 26 -2 20 -18 21 -18 4 7 -22 31 -21 47 1 53 9 3 -1 5 -23 5 -22
0 -32 -2 -22 -5z"/>
<path d="M2335 370 c-16 -7 -17 -9 -3 -9 9 -1 20 4 23 9 7 11 7 11 -20 0z"/>
<path d="M2320 344 c36 -8 100 -9 100 -2 0 5 -26 7 -57 7 -32 -1 -51 -3 -43
-5z"/>
<path d="M1098 333 c17 -2 47 -2 65 0 17 2 3 4 -33 4 -36 0 -50 -2 -32 -4z"/>
<path d="M2105 321 c-4 -7 7 -11 29 -11 24 0 36 -5 40 -17 3 -11 4 -7 3 7 -2
20 -8 26 -34 28 -17 2 -34 -2 -38 -7z"/>
<path d="M1091 303 c-1 -21 3 -23 42 -21 l42 1 -37 4 c-24 3 -38 10 -41 21 -3
12 -5 11 -6 -5z"/>
<path d="M2326 312 c-11 -18 12 -33 45 -30 23 2 35 9 37 21 3 14 -4 17 -37 17
-22 0 -42 -4 -45 -8z m74 -12 c0 -5 -13 -10 -30 -10 -16 0 -30 5 -30 10 0 6
14 10 30 10 17 0 30 -4 30 -10z"/>
</g>
</svg>
